<?xml version="1.0" encoding="utf-8"?>
<!-- Generator: Adobe Illustrator 18.1.1, SVG Export Plug-In . SVG Version: 6.00 Build 0)  -->
<!DOCTYPE svg PUBLIC "-//W3C//DTD SVG 1.1//EN" "http://www.w3.org/Graphics/SVG/1.1/DTD/svg11.dtd">
<svg version="1.1" id="Layer_1" xmlns="http://www.w3.org/2000/svg" xmlns:xlink="http://www.w3.org/1999/xlink" x="0px" y="0px"
	 viewBox="432.9 364.9 325 115.3" enable-background="new 432.9 364.9 325 115.3" xml:space="preserve">
<g id="Layer_2" display="none">
	<rect x="-86.1" y="50.9" display="inline" fill="#7DC6D4" width="1491" height="721.1"/>
</g>
<g>
	<g opacity="0.4">
		<g>
			<path fill-rule="evenodd" clip-rule="evenodd" fill="#203644" d="M432.9,366.9v77.6c0,17.9,23.4,25.5,46.7,35.8
				c23.4-10.3,46.7-17.9,46.7-35.8v-77.6H432.9L432.9,366.9z M434.7,369.1v74.6c0,17.2,22.5,24.5,44.9,34.4
				c22.5-9.9,44.9-17.2,44.9-34.4v-74.6H434.7L434.7,369.1z"/>
			<path fill-rule="evenodd" clip-rule="evenodd" fill="#203644" d="M468.4,435.2c-0.1,0-0.4-0.3-0.6-0.4c-0.8-0.4-0.4-2.9-0.2-2.4
				c0.5,0.9,0.6,1,1.6,1c0,0,1.6,0.7,1.2,1.1C470,435.1,469.1,435.3,468.4,435.2L468.4,435.2z M465.2,434c0,0-1.2-0.4-1.4-0.6
				c-0.3-0.2-0.9-1.5-0.6-1.8c0.3-0.3,2.1,0.5,2.2,0.7c0.1,0.2,0.8,0.3,0.9,0c0.1-0.1,0.8-0.7,0.4,0
				C466.5,432.7,465.9,434,465.2,434L465.2,434z M461.9,447.5c-0.4-0.3-0.1-2.1-0.8-2.4c-1.5-0.6-1-1.4-1.4-1.6
				c-0.2-0.1,0-0.1-0.2-0.2c-0.2-0.2-0.5-3.9-0.3-4.1c0.2-0.2,0.3-1.4,0.6-0.9c0.1,0.3,0.2,4,0.4,4.1c0.6,0.3,0.4,0.5,0.3,0.8
				c-0.3,2.3,1.7-0.1,1.4,1.5c0,0.3,0.2,1,0.3,1.2c0.3,0.9,1-1.4,1.9-0.7c1,0.9,0.6-1.8,1.8-1c0.7,0.4,0.8-0.6,0.8-0.7
				c0.1-2.2,1.3-0.2,1.5-2.4c0-0.2,1-1.7,0.8,0.6c0,0.3-0.1,1.7-0.9,1.8c-0.1,0-0.5,0.1-0.7,0.5c-0.1,0.2-0.8,1-2,1.7
				c-0.7,0.5-2.4,0.3-2.5,1.3C462.9,447.2,462.4,447.9,461.9,447.5L461.9,447.5z M452.8,463.6c-0.1,0-0.9-0.4-1.2-0.6
				c-0.7-0.3-0.2-2.6-0.7-2.6c0,0-1.5-2.1-1.6-1.2c0,0.2-0.6,0.8-1,0.3c-0.4-0.5,0.5-2,0.9-2.4c0.4-0.5,2.4-0.5,2.4-0.5
				c0.2-0.1,0.5-0.7,0.7-0.8c1.3-0.2-1.6-0.7-0.7-1.3c0.6-0.4,1.6-0.8,2-0.7c1.1,0.4,1.2,1.3,1.8,1.6c0.2,0.1,0.1,1,0.6,1.3
				c0.7,0.5,2.3-1.6,2.5-2.2c0.1-0.2,0.8-1.4,0.8-1.5c0.1-1.3,0.4-2.1-1-2.2c-0.1,0-5.1-1.9-5.2-2.2c0-0.1-0.6-0.4-0.7-0.4
				c-0.8-0.1,0.9-1.4-0.3-1.6c-0.2,0-1.2-1.2-1.4-1.2c-2-0.2,1.6-1.9-0.1-1.9c0,0-2.4-1.1-1.4-1.5c0.3-0.1,2.4-0.2,2.1-1.3
				c-0.1-0.3-1.4-0.1-1.8,0.3c-0.3,0.3-0.2,0-0.9-0.6c-0.9-0.8,1.3-2,0.8-2.4c-0.5-0.4-2.6-0.2-2.7-0.7c0-0.1-1.3-0.6-1.6-0.1
				c-0.1,0.3-0.4,0.7-0.9-0.4c-0.2-0.4,0.5-2,1-2.4c0.4-0.2,1.8-0.5,1.8-0.5c0.2,0,0.5-1.3-0.3-1.6c-0.4-0.2-0.9,0.4-0.8-0.5
				c0-0.1,1.1-0.7,1.4-1c0.4-0.4,2.2-0.1,2.4,0.3c0.1,0.2,2,1.8,1.9,0.2c0-0.1-1-0.4-0.6-0.9c0.5-0.6,2.7-0.8,2.9,0.4
				c0,0.2,1.3,2.2,0.7,2.7c-0.5,0.4-0.6,1-0.9,1.3c-0.2,0.3,0.2,2.1,0.3,2.4c0.2,0.5,2.4,3.2,2.5,1.3c0-0.1,0.2-2,0.3-2.3
				c0.3-0.5,1.3-0.9,1.4-1.5c0-0.1,1-3,1-3.1c0.1-0.9,1.1,1.1,1.1-0.5c0,0,1.6-2.6,1.6-2.7c0.1-0.5,1.5,0.7,1.6-0.6
				c0-0.1,0.8-0.3,1.1-0.5c0.3-0.2,1.8-0.8,2.4-0.2c0.8,0.7,1.4-1,2.3-0.7c0.3,0.1,0.2,1.6,0.7,1.7c1.3,0.5,2.2-0.6,2.1,1.3
				c0,0.1-0.1,0.6,0,0.7c0.1,0.3,1.1-0.1,1.2,1.1c0,0.1,0.6,0.6,0.8,0.7c0.5,0.2-0.4,2.5-1.1,2.6c-0.2,0,0,1,0.3,1.2
				c0.2,0.2,0.6,2,0.2,2.2c-0.2,0.1-0.5,1.4-0.2,1.8c0.4,0.5,12.7,0.1,13,0.1c1.1-0.3,8.2-0.2,8.5-0.2c4.5,0.3,5.7,0.7,6.4,1
				c0.6,0.3,4.8,1.4,5.8,0.9c1.6-0.9,1.1-2,0.5-2.5c-0.5-0.4-3.6-1.1-4.6-1.2c-5.1-0.1-8.7,0.4-8.8,0.4c-1.4,0.1-9.7,0.4-11.2,0.4
				c-1.5,0-3.5-0.2-4.4-0.4c-0.9-0.2-2.5-1-2.8-1.8c-0.4-0.7-1.2-1.9-0.4-4c0.8-2.1,3.3-3,5.1-3.2c1.7-0.2,7.6,0.2,8,0.2
				c2.9,0.3,5.5,0.5,8.4,0.8c0.2,0,8.1,0,8.3-0.1c0.8-0.2,6.3-0.4,6.6-0.3c5.9,0.3-0.3,1.4-0.5,1.5c-1.2,0.3-2.6,1.2-3.9,1.3
				c-0.1,0-2.6,0.7-2.9,1c-0.3,0.3-8.3,0.9-8.5,0.6c-0.2-0.2-0.7,0.6-1.1,0.5c-1.6-0.3-4.6,0-4.8-0.1c-0.5-0.3-1.2-0.2-1.8-0.5
				c-0.3-0.2-0.1,0-0.9,0.5c-0.4-0.4-4.8-1.6-5.1-1.8c-0.5-0.3-2.9-0.2-3.5,0.6c-0.4,0.6-0.3,1.9,0.9,2.1c6.2,0.9,13.3-0.1,19.6-0.3
				c2.9-0.1,7.8,0,10.1,1.8c1.7,1.4,1.8,2.5,1.7,4c-0.2,1.5-1.9,3-2.7,3.2c-0.2,0.1-1.5,0.6-1.7,0.7c-1.8,0.2,0.6,1,1,1.3
				c0.3,0.3,3-0.6,3.5,0.9c0.1,0.3-0.2,1.9,0.2,2.1c0.3,0.2,1.7,3.9,1.1,4c-0.1,0-0.9,0-0.7,1c0.1,0.2,0.2,1.7,0.3,2
				c0.3,1.7-1.7-0.1-2,0.6c-0.2,0.3-0.5,2.9-1,2.4c-0.6-0.6-1.3,0.3-0.4,0.4c0.2,0,0.8,0.8,0.5,1.3c-0.5,0.9-2.9-0.2-3.3,0
				c-0.6,0.4-0.9,1-1.3,1.4c-0.5,0.5-2.4-0.3-1.8,0.5c0.5,0.6,0,1-0.7,0.7c-1.6-0.7-0.9-2-2.8-1.9c0,0-0.8-0.6-1,0
				c-0.1,0.2,0.2,0.9-0.6,0.8c-0.1,0-0.7-0.8-1.2-1.6c-0.3-0.5,0.3-2,1.6-2.1c0.1,0,1.2-0.6,1.2-0.6c0-1.2,0.1-2-0.8-1.5
				c-0.5,0.3-0.6,0-0.4-0.5c0.5-1.8,3.9-0.6,4.3-0.1c0.2,0.3,0.7,0.4,0.7,0.6c0.2,1.8,1.6-0.7,1.8-1.5c0-0.1,1.8-3.9-0.5-3.9
				c0,0-3.7-0.3-3.9-0.4c-0.3-0.2-2.4-0.9-2.5-1.2c0,0-2-1.7-2.4-1.4c-0.4,0.4-0.1,0.6-0.1,0.6c0.8,0,1.6,1,1.1,1.7
				c-0.3,0.4-0.5,2.1-0.3,2.4c0.3,0.3-0.7,3.6-0.7,3.7c-0.1,1-0.7,0.4-0.9,0.3c-0.7-0.2-1.2,2.2-1.5,2.6c-0.4,0.5-1.3-0.9-1.3-0.1
				c0,0-1.6,2.5-1.7,1.4c0-0.1-1-1.5-0.9-0.1c0,0.1,0.7,1,0.7,1.1c0.2,0.7-1.7,0.8-1.9,0.6c-0.2-0.2-1.4-0.9-1.7-0.8
				c-1.2,0.3-1.2,1.8-2.6,1c-0.8-0.4-1.7,0.9-2.2,1c-1.6,0.4-0.3-2.5-1.3-3.1c-0.6-0.4-1.2,1.9-1.9,0c-0.3-0.7,0.4-2.4,1.1-2.6
				c0.2,0,0.7-0.3,0.9-0.3c1.8-0.2,0.5-1,0.4-1c-2.1-0.1-0.6-1.1-0.5-1.2c0.1-0.2,1.1-0.4,1.3-0.7c0.3-0.5,1.8,0.5,2,0.5
				c0.8,0.2,1.5,1,1.5,1.1c0.1,2.4,5.7-2.6,4.6-3.5c-0.6-0.4-3.3-0.7-4.2-1.8c-0.8-0.9,1-3.1,0.9-3.4c-0.3-0.5-7.6,2.2-8.1,2.4
				c-0.1,0-2.8,0.5-3.1,0.8c-0.3,0.4-5.3-0.6-5.4,0.8c0,0.1-0.9,0.4-1,0.4c-0.4,0.1-1.3,3.8-1.6,4.1c-0.3,0.3-1.2-0.5-1.4,0.2
				c0,0.1-0.9,3.3-1,3.4c-0.3,0.2-1.1-0.8-1.3-0.9c-0.8-0.2-0.9,0.9-1,1c-0.2,1.1-0.5,1.1-0.9,0.8c-0.3-0.4-1.5-2.3-1.3,0.5
				c0,0.1,0.5,0.7,0.1,1c-0.3,0.2-2.3,0.2-2.5-0.2c-0.1-0.2-0.5-0.3-0.5-0.5c-0.2-0.8-2.6,0.5-2.8,0.7c-0.2,0.2,0.4,0.9,0.1,1.1
				C454.1,463.4,453.1,463.7,452.8,463.6L452.8,463.6z M480.5,456.1c-0.1,0-0.6-0.3-0.2-0.6c0.1-0.1,2.1-1,1.7,0.3
				C481.9,456.1,481.3,456.2,480.5,456.1L480.5,456.1z M478.7,459.9c-0.2,0,0-1.1,0.3-1.2c0.2-0.1,0.4-0.2,0.6-0.2
				C480.2,458.7,479.5,460.1,478.7,459.9L478.7,459.9z M481.3,462.2c-0.2-0.1,0-0.7,0.3-1c0.2-0.2,1.5-0.6,1.2,0.3
				C482.6,461.8,481.7,462.4,481.3,462.2L481.3,462.2z M483.8,461.7c-0.5-0.7-1.3-1.3-1-1.8c0.1-0.2,1.8,0.1,1.9-0.3
				c0.2-0.6-2.7-0.9-2.8,0c0,0-0.5,0.9-1,0.3c-0.4-0.5-1-2.3,0.7-1.8c0.4,0.1,1.4,0.4,0.8-0.1c-0.4-0.2-0.6-1.2-0.3-1.6
				c0.4-0.4,1.3-0.5,1.6-0.2c0.4,0.4-0.5,1.5,1.3,1.5c0.1,0,1.7-0.8,1.8-0.9c0.2-0.1,2.3-2.1,2.5-2.3c0.3-0.2,1-1.8,0.8-2.3
				c-0.5-1.2-3.4-1.3-3.9-1.5c-0.9-0.4,0.8-2.6,1-3.1c0.5-1.3,5.6-0.9,5.8-0.8c0.2,0.2-1,2.3,0.3,2.5c0.3,0.1,1,0.1,1.4,0.3
				c0.7,0.4-1.5,1.2-0.5,1.3c0.1,0,1.3,2.8,0.7,3.3c-0.6,0.5-0.8,1.4-0.9,0.5c0-0.1-1.1-2.2-1,0.7c0,0.1,0.3,2.2-0.8,1.9
				c-0.2-0.1-0.3-1.4-0.5-1.5c-1-0.3-0.6,2.7-1.3,3c-0.3,0.1-0.5,0.3-0.5,0.2c-0.1-2.8-0.8-0.6-1-0.5c-0.1,0-1,0.6-1,0.6
				c0,1.2,1.2,1.7,0.4,2.3c-0.9,0.7-1.7-1.8-2-1.4c-0.4,0.4-1.8,0.1-2,1C484.4,461.5,484.2,462.2,483.8,461.7L483.8,461.7z
				 M497.1,460.9c-0.1,0-0.7-0.6-0.3-1.1c0.3-0.3,0.8-0.7,1.1-0.1C498.1,460.1,497.6,461,497.1,460.9L497.1,460.9z M498.9,456.1
				c-0.1,0-0.7-0.2-0.1-0.7c0.5-0.4,1.7-0.2,1.1,0.3C499.5,456,499.4,456.2,498.9,456.1L498.9,456.1z M501.3,462.4
				c0,0-0.5-1-0.2-1.3c0.3-0.3,0.8-0.3,1-0.1C502.3,461.1,501.8,462.4,501.3,462.4L501.3,462.4z M453,455c0-0.2-2-1,0.6-1
				C453.6,454.4,454.8,455,453,455L453,455z M449,458.6c-0.3-0.2-0.1-0.8,0.4-1.4c0.5-0.6,1.7,0,1,0.5
				C449.9,458.1,449.5,458.9,449,458.6L449,458.6z M452.7,462.7c0-0.1-0.8-0.4-0.8-1.3c0.1,0,0.2-0.7,0.7-0.7
				C452.7,461,454.4,462.7,452.7,462.7L452.7,462.7z M458.7,461.7c-0.1,0-0.4-0.2-0.5-0.5c-0.1-0.2-0.3-1-0.4-1.1
				c-0.4-0.2-1.9-0.2-2.1,0.3c-0.1,0.2-0.6,0-1,0.5c-0.5,0.6-1.8-1-1.2-1.3c0.3-0.2,0.8-1.1-0.4-0.6c-0.4,0.2-2.3,0.9-2.2-0.8
				c0-0.1,0.4-0.5,0.7-0.9c0.4-0.4,1.1,0.2,1.5-0.1c0.6-0.4-1.3-1.1,1-1.5c0.4-0.1,0.5,0,0.9,0.5c0.3,0.4-0.2,1.4,1,1.4
				c0,0,1.7-1.3,2-1.5c0.4-0.3,2.8-4.2,3-4.8c0.1-0.2,0,0,0.2-0.2c0.1-0.1,1.8-0.1,2.1-0.3c0.3-0.3,1.3,0.1,1.6-0.2
				c0.3-0.3,1.5-1.9,1.8-1.5c0.4,0.6,1.8-1.4,1.8-1.4c0-0.9,1.5-0.2,1.9-1.4c0.1-0.4,0.6-2.5,1.6-2.5c0.1,0,0.8-2.4,0.8-2.4
				c0.1-0.8,0.9-0.8,1.6-0.5c0.3,0.1,9.2,0.1,10.6-0.3c0.4-0.1,12.6-0.4,13.8-0.1c0.5,0.1,4.5,1.4,4.6,1.5c0.4,0.1,3.1,0.6,4,0.1
				c1-0.5,1.6-1.2,1.6-2.2c0-1-0.8-1.6-1.1-1.8c-1.3-0.9-5.3-1.2-5.4-1.2c-6.8-0.1-15.9,0.9-19.3,0.9c-3.4,0-4.6-0.5-5.1-0.7
				c-0.5-0.2-1.9-1.2-2.1-2.4c-0.2-1.2,0.3-2.6,1-3.2c0.7-0.6,2.2-1.7,4.5-1.6c4.5,0.1,6.9,0.2,13.8,1.1c1.9,0.2,12.8,0.1,12.8,0.2
				c-0.8,1.2-10.1,2-10.5,1.4c-0.2-0.3-1.4-0.7-1.9-0.3c-0.5,0.5,1.3,1-0.1,0.9c-0.1,0-2.2-1-2.3-1c-0.9-0.1-0.1,0.7-0.1,0.9
				c0.2,1.2-3.7-1.7-4.2-1.4c-0.8,0.5,1,1.1,1,1.3c0.2,1-0.9,0-1.6,0c0,0-2.1-1.9-2.8-1.2c-0.6,0.6,1.6,1.2,0.1,1.1
				c-0.1,0-3.6-1.3-4.4-1.4c-0.9-0.1-3.1,0.1-3.7,1.3c-0.3,0.6-0.4,2.8,1.2,3.4c0.7,0.2,4.7,0.5,7.3,0.5c2.6,0,14.2-1.2,16.7-0.8
				c4.6,0.6,5.5,1.1,6.2,1.9c1,1.2,1.2,1.8,0.7,3.2c-0.5,1.4-2.2,2.2-3.4,2.1c-0.7,0-4.5-0.8-4.9-1.1c-0.5-0.4-3.3-0.9-2.8-0.5
				c0.6,0.5,3.6,1.6,3.9,2.1c0.2,0.3,2.1,1.8,2.6,2.2c0.4,0.3,2.8,1.5,3.5,1.2c1.3-0.7,2.2,0.4,1.3,0.8c-1.9,0.9,0.5,1.9,0.7,2.1
				c0.1,0.1,1.3,2.3,0.3,2.3c0,0-0.8-0.6-1.1,0c-0.2,0.3,0.2,0.7,0.3,0.7c0.5,0,1.6,3,0.3,2.9c-0.1,0-1-1.4-1.4-1.1
				c-0.6,0.4,0.2,2.7-0.4,3.1c-0.5,0.4-0.5-1.1-1.1-0.8c-1.2,0.6,0.9,3.3,0.5,3.6c-0.3,0.2-1.4-0.3-1.6-0.9
				c-0.1-0.3-0.6,0.1-0.9,0.4c-0.3,0.3-0.8-0.6-1,0.3c-0.1,0.2,0.3,1.5-0.9,1.3c-0.1,0-0.8-1.2-0.4-2c0.8-1.4-2.6,0.9-2.6,1
				c-0.2,0.4-1.5,0.2-1.5-0.3c0-0.1-0.2-0.8,0.3-1.4c0.5-0.6,3,0.7,2.2-0.4c-0.5-0.8-1.5-0.5-1.5-1.6c0,0,0.7-1.2,1.3-0.5
				c0.6,0.6,0.9,1,1.2,1.5c0.4,0.6,1.9-0.5,2.2-1.4c0.1-0.3,1.6-4.1,1.4-4.7c-0.6-2.2-5.2-1.7-6.3-2.2c-0.5-0.2-1.8-1-2.5-1.9
				c-0.3-0.5-1.9-1.3-2.6-1.8c-0.5-0.4-6.4-1.3-6.6-0.7c-0.1,0.2-0.2,0.5-0.1,0.5c5.4,0.1,1.6,0.4,1.5,0.4c-1,0.1-8.6,1.9-8.8,2
				c-0.3,0.2-4.3,1.1-4.4,1.1c-0.5,0.1-4.3,0.6-4.7,0.3c-0.8-0.4-0.9-0.3-1.3-1c-0.2-0.4-1,0.4-1,0.8c0,0-0.5,1-0.9,1.3
				c-0.3,0.2-0.9-0.5-1.1,0.6c0,0.1-0.6,2.2-0.6,2.4c-0.2,2.1-1.4-0.5-1.9,0.1c-0.4,0.5-0.4,2.6-0.5,3c-0.4,1.4-0.6-0.2-1-0.4
				c-0.9-0.4-0.7,1.4-1,1.7c-0.3,0.3-0.7,1.5-0.9,0.8c-0.1-0.3,0.1-0.9-0.7-0.8c-0.1,0-2.1,1.7-1.4,2.1
				C459.4,460.3,459.5,461.8,458.7,461.7L458.7,461.7z M444.7,436.2c0-1.2,0.2-1.3,1.4-1.3c0,1.5-1,1-1,1.3H444.7L444.7,436.2z
				 M447.6,431.8c-0.1,0-1.5-0.6-0.4-0.8c0.2,0,1.9-0.7,1.6,0.4C448.6,431.8,448.3,431.9,447.6,431.8L447.6,431.8z M452.4,431.1
				c0-0.3-1.6-1,0.3-1C452.7,430.2,454.2,431.1,452.4,431.1L452.4,431.1z M459.4,434.2c-0.2-0.1,0.4-1.3,0.5-1.6
				c0.3-0.6,1,0.7,0.5,1C460.1,433.8,459.7,434.4,459.4,434.2L459.4,434.2z M461.4,433c-0.1,0-0.7-2-0.2-2.4c0.4-0.3,1.4-1,0.9,0.2
				C461.8,431.3,462.3,433.1,461.4,433L461.4,433z M466.7,438.2c-0.1,0-1.5-0.5-0.8-1c0.5-0.4,1.9-0.4,1.6-1.3
				c-0.1-0.3-1.9,0.2-1.9-0.2c0,0-0.6-0.5-0.6-0.5c-1.4,0,0.1,1,0,1.7c0,0.1-0.4,0.6-1,0.3c-1.2-0.6-0.3-1.2-1.8-1.4
				c-0.2,0,0-0.4-0.3-0.6c-0.6-0.4,0.3-2,0.4-2c0.8-0.1,0.3-3.9,0.8-3.8c0,0,0.7,1.2,1,0.9c0.5-0.4-0.4-1.9,0.5-1.9
				c0,0,0.5,1.1,0.8,1.2c2,0.3-0.6-2,0.7-1.9c0.1,0,0.5,0.9,0.7,1.3c0.1,0.2,0.4,1.5,0.8,0.7c0.8-1.7,0.3-2.8,1.3-1.9
				c0.8,0.7-0.9,2.2-0.2,3c0.6,0.7,1.1-2.1,2.4-1.6c0.5,0.2-0.3,1.4-1,1.6c-0.2,0-0.6,0.4,0.1,0.7c0.3,0.1,1.9-0.7,1.7,0
				c0,0.2-1.1,0.8-0.9,1.1c0.3,0.5,1.5-0.5,1.9-0.3c0.7,0.4-0.1,0.8-0.8,0.9c-0.1,0-1.3-0.1-0.2,0.5c0.7,0.4,0,2.1-0.7,1.6
				c-0.4-0.2-1,0-1.2,0.5c-0.1,0.3-0.5,1.4-1,1.9c-0.5,0.6-1-0.9-1.3-0.3C467.6,437.6,467.8,438.3,466.7,438.2L466.7,438.2z
				 M463.5,440.7c0-0.6-0.3-2.1,0.2-2.5c0.5-0.4,0.7,0.8,1.3,0.6c1.5-0.6-0.1,2.3-0.7,2.3C463.7,441,463.7,440.8,463.5,440.7
				L463.5,440.7z M463.3,442.5c-0.1,0-0.9-0.5-1.3-1c-0.3-0.5-0.2-3-0.4-3.1c-0.2-0.2-0.3-1.2,0.1-1.2c0.1,0,0.4-0.1,0.4,0
				c0.3,0,0.8,3.5,0.9,3.8c0.3,0.8,1.8,0.6,2.2,0.2c0.4-0.4,2.3-2.6,2.1-1.2c0,0.2-1.4,2.1-1.8,2.4
				C465.2,442.5,463.8,442.5,463.3,442.5L463.3,442.5z M460.6,450.2c0,0-0.1-0.9-0.4-1.1c-0.5-0.4,0.6-2.2-0.5-1.6
				c-0.5,0.2-1.1,0.6-1.1-0.8c0,0,0.3-0.9,0.3-1.1c-0.2-0.8-0.6,0.5-1.1-0.9c-0.2-0.5,0.4-3.4,0.1-3.5c-1.6-0.4-0.5-1-0.4-1.7
				c0-0.1,0.8-2,1.3-2c0,0,1.2-1.1,0.5-1.3c-0.3-0.1-0.3,0.1-0.4,0.1c-0.8,0.1,0.4-1.3,0.9-1.4c0.1,0,1.2-1.1,1.2-0.4
				c0,0,0.4,1.8,0.1,2.4c-0.6,1,0.4,2.3,0.1,3.4c-0.1,0.3-0.1,0.8,0,1c0.2,0.2,1.7,2.1,2.1,2.2c0.1,0,3.3-0.1,3.4-1.1
				c0-0.1,2.2-3.6,2.5-3.7c1.7-0.3,1.2-2.6,3-2.5c0,0,1.2,0.8,0.5,1.3c-0.6,0.5-1.3-0.9-1,0.4c0,0.2,0.8,4.2-0.2,3.8
				c-0.4-0.1,0-1.8-0.6-2.1c-1.5-0.6,0.3,3.2-0.3,3.8c-0.5,0.4-0.4,2.2-1,1.9c-0.3-0.1-0.5-1.1-0.7-0.4c-0.1,0.2-0.3,1.8-0.6,2.1
				c-0.3,0.3-0.5,0.9-1.2,0.4c-0.9-0.6-0.9,0.7-1.2,1.1c-0.5,0.8-1.6,0.3-1.7,0.7c0,0.1-0.9,0.6-1.2,0.4
				C461.6,449.2,461.6,450.3,460.6,450.2L460.6,450.2z M458.8,449.6c-0.2-0.1-5.1-0.9-4.8-2.4c0.1-0.3,0.7-0.7,0.4-1
				c-0.4-0.4-2.5-0.9-1.8-1.5c0.6-0.6,1-1.1,0.4-1.5c-0.4-0.3-2.1-0.2-1.6-1.2c0.2-0.4,1.7-0.6,2.1-1c0.4-0.3-1.8-2.6-2.3-1.7
				c-0.3,0.5-1.7,1.1-1.9,0.6c-0.5-1.2,1.3-0.9,1.2-2.4c0-0.1-0.5-0.9-0.9-1c-0.2-0.1-2.4,0.1-2.5-0.3c-0.1-0.2-0.1-0.6-0.1-0.8
				c0.2-1.7,1.9,0.4,2.4-0.2c0.5-0.5-2.4-1.9-1.2-2.4c0.6-0.3,1.4-0.8,1.8-0.5c0.5,0.4-0.2,2.9,1.1,2.8c0.1,0,0.4-2.3,0.4-2.5
				c0.2-0.6,1.5-0.7,2-0.1c0.4,0.5-0.7,1.6-0.8,1.8c-0.2,0.3,0,2.3,0.2,2.6c0.3,0.3,1,2.2,1.3,2.3c0.1,0,1.6,1.5,1.6,1.6
				c0.1,0.6,0.2,2.3,0.7,3c0.7,0.9-0.5,2.9,0.3,3.3c1.4,0.8,0.3,1.3,2.4,1.9C459.8,449,459.3,449.9,458.8,449.6L458.8,449.6z
				 M464.8,433.5c0-0.6,0.9-0.5,0.4,0C465,433.6,464.9,433.6,464.8,433.5L464.8,433.5z M469.1,434.9c0-0.6,0.7-1,0.7-0.2
				C469.6,434.7,469.5,434.9,469.1,434.9L469.1,434.9z"/>
			<path fill-rule="evenodd" clip-rule="evenodd" fill="#203644" d="M504.5,402.9c0.4,0,1,0.4,1,0.8v3.4c0,0.2-0.1,0.4-0.3,0.4h-1.3
				c-0.2,0-0.3-0.2-0.3-0.4v-3.4C503.5,403.2,504.2,402.9,504.5,402.9L504.5,402.9z M500.4,402.9c0.4,0,1,0.4,1,0.8v3.4
				c0,0.2-0.1,0.4-0.3,0.4h-1.3c-0.2,0-0.3-0.2-0.3-0.4v-3.4C499.4,403.2,500.1,402.9,500.4,402.9L500.4,402.9z M457.8,402.9
				c0.4,0,1,0.4,1,0.8v3.4c0,0.2-0.1,0.4-0.3,0.4h-1.3c-0.2,0-0.3-0.2-0.3-0.4v-3.4C456.7,403.2,457.4,402.9,457.8,402.9
				L457.8,402.9z M453.7,402.9c0.4,0,1,0.4,1,0.8v3.4c0,0.2-0.1,0.4-0.3,0.4H453c-0.2,0-0.3-0.2-0.3-0.4v-3.4
				C452.6,403.2,453.3,402.9,453.7,402.9L453.7,402.9z M492.1,405.6c-0.2,0.2,0.2,0.9,0.2,1.2c0,0.6-0.5,1-1,1c-0.6,0-1-0.5-1-1
				c0-0.3,0.4-1,0.2-1.2c-0.2-0.2-0.9,0.2-1.2,0.2c-0.6,0-1-0.5-1-1c0-0.6,0.5-1,1-1c0.3,0,1,0.4,1.2,0.2c0.2-0.2-0.2-0.9-0.2-1.2
				c0-0.6,0.5-1,1-1c0.6,0,1,0.5,1,1c0,0.3-0.4,1-0.2,1.2c0.2,0.2,0.9-0.2,1.2-0.2c0.6,0,1,0.5,1,1c0,0.6-0.5,1-1,1
				C493,405.8,492.3,405.4,492.1,405.6L492.1,405.6z M484.5,418.6v-0.4h2v2.9h-0.1L484.5,418.6L484.5,418.6z M484.5,417.6v-3.9h2
				v3.9H484.5L484.5,417.6z M484.5,413.1v-2.7c0-0.4,0-0.9-0.1-1.3l2-0.5c0.1,0.4,0.1,0.8,0.1,1.2v3.4H484.5L484.5,413.1z
				 M484.2,408.6c-0.4-1.1-1.1-2.1-2.1-2.8l1-1.8c1.5,0.9,2.6,2.4,3,4L484.2,408.6L484.2,408.6z M481.6,405.5
				c-0.7-0.4-1.6-0.6-2.5-0.6c-0.8,0-1.6,0.2-2.3,0.5l-1-1.7c1-0.5,2.1-0.8,3.3-0.8c1.2,0,2.4,0.3,3.4,0.8L481.6,405.5L481.6,405.5z
				 M476.3,405.7c-1,0.6-1.8,1.6-2.2,2.8l-2-0.5c0.5-1.7,1.6-3.1,3.2-4L476.3,405.7L476.3,405.7z M473.9,409.1
				c-0.1,0.4-0.2,0.9-0.2,1.3v2.7h-1.9v-3.3c0-0.4,0-0.8,0.1-1.2L473.9,409.1L473.9,409.1z M473.8,413.7v3.9h-1.9v-3.9H473.8
				L473.8,413.7z M473.8,418.2v0.4l-1.9,2.4v-2.8H473.8L473.8,418.2z M474.3,412.6v-1h0.6c0.1-0.1,0.2-0.3,0.4-0.4v-1.5
				c-0.1-0.1-0.3-0.2-0.4-0.4h-0.5c0.1-0.3,0.2-0.7,0.3-1h0.1c0.1-0.2,0.2-0.3,0.4-0.4v-0.5c0.3-0.4,0.6-0.8,1-1.1v1.5
				c0.1,0.1,0.3,0.2,0.4,0.4h1.7c0.1-0.2,0.2-0.3,0.4-0.4v-2.6c0.1,0,0.3,0,0.4,0c0.2,0,0.4,0,0.5,0v2.6c0.1,0.1,0.3,0.2,0.4,0.4
				h1.7c0.1-0.2,0.2-0.3,0.4-0.4v-1.5c0.4,0.3,0.7,0.7,1,1.1v0.4c0.1,0.1,0.3,0.2,0.4,0.4h0.1c0.1,0.3,0.3,0.6,0.3,1h-0.4
				c-0.1,0.1-0.2,0.3-0.4,0.4v1.5c0.1,0.1,0.3,0.2,0.4,0.4h0.5v1h-0.5c-0.1,0.2-0.2,0.3-0.4,0.4v1.6h-1V413
				c-0.1-0.1-0.3-0.2-0.4-0.4H480c-0.1,0.2-0.2,0.3-0.4,0.4v1.6h-1V413c-0.1-0.1-0.3-0.2-0.4-0.4h-1.7c-0.1,0.2-0.2,0.3-0.4,0.4v1.6
				h-1V413c-0.1-0.1-0.3-0.2-0.4-0.4H474.3L474.3,412.6z M487.1,421.1v-11.4c0-4.1-3.6-7.5-7.9-7.5c-4.4,0-7.9,3.4-7.9,7.5v11.4
				h-6.5v-2.7v-1.3l-2.6-2.4v-14.4h33.6v14.4l-2.4,2.4h18.2l-2.3-2.4v-14.4v-0.6l2.3-2v-1.1v-4.1h-1.1h-1.3c0-4.3-3.1-6.5-6.3-6.8
				v-2.6c2.3-0.1,3.4,0.9,5.3,1.2c0.2-1.3,0.2-2.7,0-3.9c-2.2-0.1-3-1.1-4.9-1.2c0.1-0.1,0.1-0.3,0.1-0.4c0-0.6-0.5-1-1-1
				c-0.6,0-1,0.5-1,1c0,0.3,0.2,0.6,0.4,0.8v6.2c-3.2,0.2-6.3,2.5-6.3,6.8h-1.8c0-4.5-4.1-13.6-14.1-14.1v-2.6
				c2.3-0.1,3.4,0.9,5.3,1.2c0.2-1.3,0.2-2.7,0-3.9c-2.2-0.1-3-1.1-4.9-1.2c0.1-0.1,0.1-0.3,0.1-0.4c0-0.6-0.5-1-1-1
				c-0.6,0-1,0.5-1,1c0,0.3,0.2,0.6,0.4,0.8v6.1c-9.9,0.2-14.1,9.6-14.1,14.1h-1.9c0-4.3-3.1-6.5-6.3-6.8v-2.6
				c2.3-0.1,3.4,0.9,5.3,1.2c0.2-1.3,0.2-2.7,0-3.9c-2.2-0.1-3-1.1-4.9-1.2c0.1-0.1,0.1-0.3,0.1-0.4c0-0.6-0.5-1-1-1
				c-0.6,0-1,0.5-1,1c0,0.3,0.2,0.6,0.4,0.8v6.2c-3.2,0.2-6.3,2.5-6.3,6.8h-1.2h-1h0v4.1v1.1l2.2,2v0.6v14.4l-2.2,2.4l0,0v0v1.3v2.7
				v1.5h64.9v-1.5v-2.7v-1.3l-1.4,0l-1.1-1.3h-13.1l-1.3,1.3l-1.4,0v1.3v2.7H487.1L487.1,421.1z M473.3,420.5H485v0.5h-11.6V420.5
				L473.3,420.5z M474.1,419.5h10.2v0.5h-10.2V419.5L474.1,419.5z M474.8,418.5h8.7v0.5h-8.7V418.5L474.8,418.5z M476.2,411.2
				c0.1,0.1,0.3,0.2,0.4,0.4h1.7c0.1-0.1,0.2-0.3,0.4-0.4v-1.5c-0.1-0.1-0.3-0.2-0.4-0.4h-1.7c-0.1,0.1-0.2,0.3-0.4,0.4V411.2
				L476.2,411.2z M479.6,411.2c0.1,0.1,0.3,0.2,0.4,0.4h1.7c0.1-0.1,0.2-0.3,0.4-0.4v-1.5c-0.1-0.1-0.3-0.2-0.4-0.4H480
				c-0.1,0.1-0.2,0.3-0.4,0.4V411.2L479.6,411.2z M447.8,396.7h15.9v-3.4h-1.5v1.3v0.9h-2.5v-0.9v-1.3h-2.7v1.3v0.9h-2.5v-0.9v-1.3
				h-2.5v1.3v0.9h-2.5v-0.9v-1.3h-1.6V396.7L447.8,396.7z M467.7,405.6c-0.2,0.2,0.2,0.9,0.2,1.2c0,0.6-0.5,1-1,1c-0.6,0-1-0.5-1-1
				c0-0.3,0.4-1,0.2-1.2c-0.2-0.2-0.9,0.2-1.2,0.2c-0.6,0-1-0.5-1-1c0-0.6,0.5-1,1-1c0.3,0,1,0.4,1.2,0.2c0.2-0.2-0.2-0.9-0.2-1.2
				c0-0.6,0.5-1,1-1c0.6,0,1,0.5,1,1c0,0.3-0.4,1-0.2,1.2c0.2,0.2,0.9-0.2,1.2-0.2c0.6,0,1,0.5,1,1c0,0.6-0.5,1-1,1
				C468.6,405.8,467.9,405.4,467.7,405.6L467.7,405.6z M508.4,392.5c0-7.8-11.8-7.8-11.8,0h0.5v0.7v1.3h1v-1.3v-0.7h4v0.7v1.3h1
				v-1.3v-0.7h4.2v0.7v1.3h1v-1.3v-0.7H508.4L508.4,392.5z M492.5,392.5c0-3.9-3.4-13-13.4-12.9c-9.9,0-13.5,8.9-13.5,12.9h1.3v0.7
				v1.3h0.8v-1.3v-0.7h4.9v0.7v1.3h0.9v-1.3v-0.7h5v0.7v1.3h1.1v-1.3v-0.7h5v0.7v1.3h1v-1.3v-0.7h4.7v0.7v1.3h1v-1.3v-0.7H492.5
				L492.5,392.5z M461.7,392.5c0-7.8-11.8-7.8-11.8,0h0.3v0.7v1.3h1v-1.3v-0.7h4.1v0.7v1.3h1v-1.3v-0.7h4.3v0.7v1.3h1v-1.3v-0.7
				H461.7L461.7,392.5z M456.4,380c2.1,0,2.6,0.8,4.6,1c0.2,0.8,0.2,1.8,0,2.6c-1.6-0.3-2.4-1.1-4.5-1
				C456.4,381.8,456.3,380.7,456.4,380L456.4,380z M506.4,393.2v1.3v0.9h2.5v-0.9v-1.3h1.6v3.4h-16.1v-3.4h1.7v1.3v0.9h2.5v-0.9
				v-1.3h2.5v1.3v0.9h2.5v-0.9v-1.3H506.4L506.4,393.2z M447.8,421.1h15.9v-2.7h-15.9V421.1L447.8,421.1z M494.5,421.1h16.1v-2.7
				h-16.1V421.1L494.5,421.1z M448.1,417.2h16.6l-1.4,0l-1.4-1.3h-12.8L448.1,417.2L448.1,417.2z M496.8,414.8h11.4v-14.4h-11.4
				V414.8L496.8,414.8z M449.9,414.8h11.3v-14.4h-11.3V414.8L449.9,414.8z M450.4,399.1h10.9l1.5-1.3H449L450.4,399.1L450.4,399.1z
				 M462.9,399.1h32.2l-1.4-1.3h-29.4L462.9,399.1L462.9,399.1z M496.8,399.1H508l1.5-1.3h-14.1L496.8,399.1L496.8,399.1z
				 M464.8,396.7h28.6v-3.4h-1.3v1.3v0.9h-2.5v-0.9v-1.3h-3.2v1.3v0.9h-2.5v-0.9v-1.3h-3.4v1.3v0.9h-2.6v-0.9v-1.3h-3.5v1.3v0.9
				h-2.5v-0.9v-1.3h-3.4v1.3v0.9h-2.4v-0.9v-1.3h-1.4V396.7L464.8,396.7z M479.9,372.6c2.1,0,2.6,0.8,4.6,1c0.2,0.8,0.2,1.8,0,2.6
				c-1.6-0.3-2.4-1.1-4.5-1C479.8,374.5,479.7,373.4,479.9,372.6L479.9,372.6z M503.1,380c2.1,0,2.6,0.8,4.6,1
				c0.2,0.8,0.2,1.8,0,2.6c-1.6-0.3-2.4-1.1-4.5-1C503,381.8,503,380.7,503.1,380L503.1,380z"/>
		</g>
		<g>
			<path fill="#203644" d="M549,399.3h-7.4v-30h6.6l16.1,17.9v-17.9h7.4v30h-5.9L549,380.4V399.3z"/>
			<path fill="#203644" d="M580.8,373c3-2.9,6.9-4.3,11.6-4.3c4.7,0,8.6,1.4,11.6,4.3c3.1,2.9,4.7,6.8,4.7,11.2
				c0,4.5-1.6,8.3-4.7,11.2c-3,2.9-6.9,4.3-11.6,4.3c-4.7,0-8.6-1.4-11.6-4.3c-3.1-2.9-4.7-6.8-4.7-11.2
				C576.1,379.8,577.7,376,580.8,373z M592.4,393.5c5,0,8.6-3.8,8.6-9.2c0-5.4-3.6-9.2-8.6-9.2c-5,0-8.6,3.8-8.6,9.2
				C583.8,389.7,587.4,393.5,592.4,393.5z"/>
			<path fill="#203644" d="M613.3,369.3h11.1c8,0,11.9,2.7,11.9,8.7c0,3.3-1.6,5.6-5.2,7.2c1.5,0.6,2.7,1.8,3.6,3.8l4.8,10.3h-8.5
				l-3.8-8.7c-1.2-2.7-2.5-3.6-5.4-3.6c-0.3,0-0.6,0-0.9,0v12.2h-7.5V369.3z M628.5,378c0-2.2-1.4-3.5-4.1-3.5h-3.6v7h3.6
				C627.2,381.6,628.5,380.4,628.5,378z"/>
			<path fill="#203644" d="M638.3,369.3h7.8l5.8,16.3l5.9-16.3h5l5.9,16.4l5.8-16.4h7.9l-12.2,30.3h-3.1l-6.8-18.8l-6.8,18.8h-3.1
				L638.3,369.3z"/>
			<path fill="#203644" d="M685,369.3h7.7v30H685V369.3z"/>
			<path fill="#203644" d="M713.6,399.8c-4.8,0-8.7-1.5-11.6-4.2c-3-2.9-4.7-6.8-4.7-11.3c0-9.1,6.6-15.6,17-15.6
				c3.7,0,7.2,0.8,10.5,2.5v7c-3.3-2.2-6.7-3.2-10-3.2c-6.1,0-9.8,3.5-9.8,9.3c0,5.5,3.5,9.2,9.2,9.2c3.6,0,7.2-1.3,10.9-3.8v7
				C721.5,398.8,717.8,399.8,713.6,399.8z"/>
			<path fill="#203644" d="M729.5,369.3h7.5v12h13.4v-12h7.5v30h-7.5v-12.2H737v12.2h-7.5V369.3z"/>
		</g>
		<g>
			<path fill="#203644" d="M568.4,438.1c-3.5,1.9-7.2,2.8-10.8,2.8c-3.5,0-6.6-0.9-9.3-2.7c-4.5-2.9-7.1-7.7-7.1-13
				c0-4.1,1.7-8,4.7-10.9c3.2-3,7.2-4.5,12-4.5c4.1,0,7.5,1.1,10.3,2.4v4.7c-3.7-2-7-3-10.3-3c-7.2,0-12.2,5.1-12.2,11.5
				c0,6.4,5,11.5,11.9,11.5c3.5,0,7.1-1.2,10.8-3.6V438.1z"/>
			<path fill="#203644" d="M574.8,412.4c1.2,0,2.2,1,2.2,2.2c0,1.3-1,2.2-2.2,2.2c-1.2,0-2.2-1-2.2-2.2
				C572.5,413.4,573.5,412.4,574.8,412.4z M572.8,420.5h4v19.9h-4V420.5z"/>
			<path fill="#203644" d="M588.6,440.8c-4.8,0-6.1-2.2-6.1-7.4V424h-3.4v-0.4l7-7.7h0.4v4.6h6.2v3.4h-6.2v9.1
				c0,2.8,0.3,3.9,2.9,3.9c1.2,0,2.3-0.3,3.4-1v3.7C591.6,440.5,590.2,440.8,588.6,440.8z"/>
			<path fill="#203644" d="M593,420.5h4.4l6.1,11.6l5.7-11.6h4.3l-14.8,29.9h-4.3l6.9-13.9L593,420.5z"/>
			<path fill="#203644" d="M653.2,438.1c-3.5,1.9-7.2,2.8-10.8,2.8c-3.5,0-6.6-0.9-9.3-2.7c-4.5-2.9-7.1-7.7-7.1-13
				c0-4.1,1.7-8,4.7-10.9c3.2-3,7.2-4.5,12-4.5c4.1,0,7.5,1.1,10.3,2.4v4.7c-3.7-2-7-3-10.3-3c-7.2,0-12.2,5.1-12.2,11.5
				c0,6.4,5,11.5,11.9,11.5c3.5,0,7.1-1.2,10.8-3.6V438.1z"/>
			<path fill="#203644" d="M666.7,420.1c2.8,0,5.4,1.1,7.4,3c2,2,3.1,4.5,3.1,7.3c0,2.7-1.1,5.4-3.1,7.4c-2,2-4.6,3-7.4,3
				c-5.9,0-10.6-4.6-10.6-10.4C656.1,424.7,660.8,420.1,666.7,420.1z M666.7,437.1c3.5,0,6.4-3,6.4-6.6c0-3.7-2.9-6.6-6.4-6.6
				c-3.5,0-6.4,2.9-6.4,6.6C660.3,434.1,663.1,437.1,666.7,437.1z"/>
			<path fill="#203644" d="M687.9,440.7c-4.3,0-7-2.6-7-7v-13.2h4v12.2c0,3.2,1.3,4.7,4.2,4.7c2.1,0,3.5-0.8,4.9-2.6v-14.3h4v19.9
				h-4V438C692,439.8,690.2,440.7,687.9,440.7z"/>
			<path fill="#203644" d="M703,420.5h4v2.4c1.9-1.9,3.8-2.7,6.1-2.7c4.3,0,7,2.6,7,7v13.2h-4v-12.2c0-3.2-1.3-4.7-4.2-4.7
				c-2.1,0-3.5,0.8-4.9,2.6v14.3h-4V420.5z"/>
			<path fill="#203644" d="M740.5,439.7c-2,0.7-3.9,1.1-5.7,1.1c-6.6,0-11.1-4.4-11.1-10.4c0-5.8,4.5-10.4,10.9-10.4
				c1.9,0,3.7,0.4,5.6,1.2v4.2c-1.9-1.1-3.6-1.6-5.5-1.6c-4.2,0-6.9,2.8-6.9,6.5c0,3.8,2.7,6.6,7.1,6.6c1.9,0,3.8-0.4,5.6-1.4V439.7
				z"/>
			<path fill="#203644" d="M746.5,412.4c1.2,0,2.2,1,2.2,2.2c0,1.3-1,2.2-2.2,2.2c-1.2,0-2.2-1-2.2-2.2
				C744.2,413.4,745.3,412.4,746.5,412.4z M744.5,420.5h4v19.9h-4V420.5z"/>
			<path fill="#203644" d="M753.8,410.3h4v30.1h-4V410.3z"/>
		</g>
	</g>
	<g>
		<g>
			<path fill-rule="evenodd" clip-rule="evenodd" fill="#FFFFFF" d="M432.9,364.9v77.6c0,17.9,23.4,25.5,46.7,35.8
				c23.4-10.3,46.7-17.9,46.7-35.8v-77.6H432.9L432.9,364.9z M434.7,367.1v74.6c0,17.2,22.5,24.5,44.9,34.4
				c22.5-9.9,44.9-17.2,44.9-34.4v-74.6H434.7L434.7,367.1z"/>
			<path fill-rule="evenodd" clip-rule="evenodd" fill="#FFFFFF" d="M468.4,433.2c-0.1,0-0.4-0.3-0.6-0.4c-0.8-0.4-0.4-2.9-0.2-2.4
				c0.5,0.9,0.6,1,1.6,1c0,0,1.6,0.7,1.2,1.1C470,433.1,469.1,433.3,468.4,433.2L468.4,433.2z M465.2,432c0,0-1.2-0.4-1.4-0.6
				c-0.3-0.2-0.9-1.5-0.6-1.8c0.3-0.3,2.1,0.5,2.2,0.7c0.1,0.2,0.8,0.3,0.9,0c0.1-0.1,0.8-0.7,0.4,0
				C466.5,430.7,465.9,432,465.2,432L465.2,432z M461.9,445.5c-0.4-0.3-0.1-2.1-0.8-2.4c-1.5-0.6-1-1.4-1.4-1.6
				c-0.2-0.1,0-0.1-0.2-0.2c-0.2-0.2-0.5-3.9-0.3-4.1c0.2-0.2,0.3-1.4,0.6-0.9c0.1,0.3,0.2,4,0.4,4.1c0.6,0.3,0.4,0.5,0.3,0.8
				c-0.3,2.3,1.7-0.1,1.4,1.5c0,0.3,0.2,1,0.3,1.2c0.3,0.9,1-1.4,1.9-0.7c1,0.9,0.6-1.8,1.8-1c0.7,0.4,0.8-0.6,0.8-0.7
				c0.1-2.2,1.3-0.2,1.5-2.4c0-0.2,1-1.7,0.8,0.6c0,0.3-0.1,1.7-0.9,1.8c-0.1,0-0.5,0.1-0.7,0.5c-0.1,0.2-0.8,1-2,1.7
				c-0.7,0.5-2.4,0.3-2.5,1.3C462.9,445.2,462.4,445.9,461.9,445.5L461.9,445.5z M452.8,461.6c-0.1,0-0.9-0.4-1.2-0.6
				c-0.7-0.3-0.2-2.6-0.7-2.6c0,0-1.5-2.1-1.6-1.2c0,0.2-0.6,0.8-1,0.3c-0.4-0.5,0.5-2,0.9-2.4c0.4-0.5,2.4-0.5,2.4-0.5
				c0.2-0.1,0.5-0.7,0.7-0.8c1.3-0.2-1.6-0.7-0.7-1.3c0.6-0.4,1.6-0.8,2-0.7c1.1,0.4,1.2,1.3,1.8,1.6c0.2,0.1,0.1,1,0.6,1.3
				c0.7,0.5,2.3-1.6,2.5-2.2c0.1-0.2,0.8-1.4,0.8-1.5c0.1-1.3,0.4-2.1-1-2.2c-0.1,0-5.1-1.9-5.2-2.2c0-0.1-0.6-0.4-0.7-0.4
				c-0.8-0.1,0.9-1.4-0.3-1.6c-0.2,0-1.2-1.2-1.4-1.2c-2-0.2,1.6-1.9-0.1-1.9c0,0-2.4-1.1-1.4-1.5c0.3-0.1,2.4-0.2,2.1-1.3
				c-0.1-0.3-1.4-0.1-1.8,0.3c-0.3,0.3-0.2,0-0.9-0.6c-0.9-0.8,1.3-2,0.8-2.4c-0.5-0.4-2.6-0.2-2.7-0.7c0-0.1-1.3-0.6-1.6-0.1
				c-0.1,0.3-0.4,0.7-0.9-0.4c-0.2-0.4,0.5-2,1-2.4c0.4-0.2,1.8-0.5,1.8-0.5c0.2,0,0.5-1.3-0.3-1.6c-0.4-0.2-0.9,0.4-0.8-0.5
				c0-0.1,1.1-0.7,1.4-1c0.4-0.4,2.2-0.1,2.4,0.3c0.1,0.2,2,1.8,1.9,0.2c0-0.1-1-0.4-0.6-0.9c0.5-0.6,2.7-0.8,2.9,0.4
				c0,0.2,1.3,2.2,0.7,2.7c-0.5,0.4-0.6,1-0.9,1.3c-0.2,0.3,0.2,2.1,0.3,2.4c0.2,0.5,2.4,3.2,2.5,1.3c0-0.1,0.2-2,0.3-2.3
				c0.3-0.5,1.3-0.9,1.4-1.5c0-0.1,1-3,1-3.1c0.1-0.9,1.1,1.1,1.1-0.5c0,0,1.6-2.6,1.6-2.7c0.1-0.5,1.5,0.7,1.6-0.6
				c0-0.1,0.8-0.3,1.1-0.5c0.3-0.2,1.8-0.8,2.4-0.2c0.8,0.7,1.4-1,2.3-0.7c0.3,0.1,0.2,1.6,0.7,1.7c1.3,0.5,2.2-0.6,2.1,1.3
				c0,0.1-0.1,0.6,0,0.7c0.1,0.3,1.1-0.1,1.2,1.1c0,0.1,0.6,0.6,0.8,0.7c0.5,0.2-0.4,2.5-1.1,2.6c-0.2,0,0,1,0.3,1.2
				c0.2,0.2,0.6,2,0.2,2.2c-0.2,0.1-0.5,1.4-0.2,1.8c0.4,0.5,12.7,0.1,13,0.1c1.1-0.3,8.2-0.2,8.5-0.2c4.5,0.3,5.7,0.7,6.4,1
				c0.6,0.3,4.8,1.4,5.8,0.9c1.6-0.9,1.1-2,0.5-2.5c-0.5-0.4-3.6-1.1-4.6-1.2c-5.1-0.1-8.7,0.4-8.8,0.4c-1.4,0.1-9.7,0.4-11.2,0.4
				c-1.5,0-3.5-0.2-4.4-0.4c-0.9-0.2-2.5-1-2.8-1.8c-0.4-0.7-1.2-1.9-0.4-4c0.8-2.1,3.3-3,5.1-3.2c1.7-0.2,7.6,0.2,8,0.2
				c2.9,0.3,5.5,0.5,8.4,0.8c0.2,0,8.1,0,8.3-0.1c0.8-0.2,6.3-0.4,6.6-0.3c5.9,0.3-0.3,1.4-0.5,1.5c-1.2,0.3-2.6,1.2-3.9,1.3
				c-0.1,0-2.6,0.7-2.9,1c-0.3,0.3-8.3,0.9-8.5,0.6c-0.2-0.2-0.7,0.6-1.1,0.5c-1.6-0.3-4.6,0-4.8-0.1c-0.5-0.3-1.2-0.2-1.8-0.5
				c-0.3-0.2-0.1,0-0.9,0.5c-0.4-0.4-4.8-1.6-5.1-1.8c-0.5-0.3-2.9-0.2-3.5,0.6c-0.4,0.6-0.3,1.9,0.9,2.1c6.2,0.9,13.3-0.1,19.6-0.3
				c2.9-0.1,7.8,0,10.1,1.8c1.7,1.4,1.8,2.5,1.7,4c-0.2,1.5-1.9,3-2.7,3.2c-0.2,0.1-1.5,0.6-1.7,0.7c-1.8,0.2,0.6,1,1,1.3
				c0.3,0.3,3-0.6,3.5,0.9c0.1,0.3-0.2,1.9,0.2,2.1c0.3,0.2,1.7,3.9,1.1,4c-0.1,0-0.9,0-0.7,1c0.1,0.2,0.2,1.7,0.3,2
				c0.3,1.7-1.7-0.1-2,0.6c-0.2,0.3-0.5,2.9-1,2.4c-0.6-0.6-1.3,0.3-0.4,0.4c0.2,0,0.8,0.8,0.5,1.3c-0.5,0.9-2.9-0.2-3.3,0
				c-0.6,0.4-0.9,1-1.3,1.4c-0.5,0.5-2.4-0.3-1.8,0.5c0.5,0.6,0,1-0.7,0.7c-1.6-0.7-0.9-2-2.8-1.9c0,0-0.8-0.6-1,0
				c-0.1,0.2,0.2,0.9-0.6,0.8c-0.1,0-0.7-0.8-1.2-1.6c-0.3-0.5,0.3-2,1.6-2.1c0.1,0,1.2-0.6,1.2-0.6c0-1.2,0.1-2-0.8-1.5
				c-0.5,0.3-0.6,0-0.4-0.5c0.5-1.8,3.9-0.6,4.3-0.1c0.2,0.3,0.7,0.4,0.7,0.6c0.2,1.8,1.6-0.7,1.8-1.5c0-0.1,1.8-3.9-0.5-3.9
				c0,0-3.7-0.3-3.9-0.4c-0.3-0.2-2.4-0.9-2.5-1.2c0,0-2-1.7-2.4-1.4c-0.4,0.4-0.1,0.6-0.1,0.6c0.8,0,1.6,1,1.1,1.7
				c-0.3,0.4-0.5,2.1-0.3,2.4c0.3,0.3-0.7,3.6-0.7,3.7c-0.1,1-0.7,0.4-0.9,0.3c-0.7-0.2-1.2,2.2-1.5,2.6c-0.4,0.5-1.3-0.9-1.3-0.1
				c0,0-1.6,2.5-1.7,1.4c0-0.1-1-1.5-0.9-0.1c0,0.1,0.7,1,0.7,1.1c0.2,0.7-1.7,0.8-1.9,0.6c-0.2-0.2-1.4-0.9-1.7-0.8
				c-1.2,0.3-1.2,1.8-2.6,1c-0.8-0.4-1.7,0.9-2.2,1c-1.6,0.4-0.3-2.5-1.3-3.1c-0.6-0.4-1.2,1.9-1.9,0c-0.3-0.7,0.4-2.4,1.1-2.6
				c0.2,0,0.7-0.3,0.9-0.3c1.8-0.2,0.5-1,0.4-1c-2.1-0.1-0.6-1.1-0.5-1.2c0.1-0.2,1.1-0.4,1.3-0.7c0.3-0.5,1.8,0.5,2,0.5
				c0.8,0.2,1.5,1,1.5,1.1c0.1,2.4,5.7-2.6,4.6-3.5c-0.6-0.4-3.3-0.7-4.2-1.8c-0.8-0.9,1-3.1,0.9-3.4c-0.3-0.5-7.6,2.2-8.1,2.4
				c-0.1,0-2.8,0.5-3.1,0.8c-0.3,0.4-5.3-0.6-5.4,0.8c0,0.1-0.9,0.4-1,0.4c-0.4,0.1-1.3,3.8-1.6,4.1c-0.3,0.3-1.2-0.5-1.4,0.2
				c0,0.1-0.9,3.3-1,3.4c-0.3,0.2-1.1-0.8-1.3-0.9c-0.8-0.2-0.9,0.9-1,1c-0.2,1.1-0.5,1.1-0.9,0.8c-0.3-0.4-1.5-2.3-1.3,0.5
				c0,0.1,0.5,0.7,0.1,1c-0.3,0.2-2.3,0.2-2.5-0.2c-0.1-0.2-0.5-0.3-0.5-0.5c-0.2-0.8-2.6,0.5-2.8,0.7c-0.2,0.2,0.4,0.9,0.1,1.1
				C454.1,461.4,453.1,461.7,452.8,461.6L452.8,461.6z M480.5,454.1c-0.1,0-0.6-0.3-0.2-0.6c0.1-0.1,2.1-1,1.7,0.3
				C481.9,454.1,481.3,454.2,480.5,454.1L480.5,454.1z M478.7,457.9c-0.2,0,0-1.1,0.3-1.2c0.2-0.1,0.4-0.2,0.6-0.2
				C480.2,456.7,479.5,458.1,478.7,457.9L478.7,457.9z M481.3,460.2c-0.2-0.1,0-0.7,0.3-1c0.2-0.2,1.5-0.6,1.2,0.3
				C482.6,459.8,481.7,460.4,481.3,460.2L481.3,460.2z M483.8,459.7c-0.5-0.7-1.3-1.3-1-1.8c0.1-0.2,1.8,0.1,1.9-0.3
				c0.2-0.6-2.7-0.9-2.8,0c0,0-0.5,0.9-1,0.3c-0.4-0.5-1-2.3,0.7-1.8c0.4,0.1,1.4,0.4,0.8-0.1c-0.4-0.2-0.6-1.2-0.3-1.6
				c0.4-0.4,1.3-0.5,1.6-0.2c0.4,0.4-0.5,1.5,1.3,1.5c0.1,0,1.7-0.8,1.8-0.9c0.2-0.1,2.3-2.1,2.5-2.3c0.3-0.2,1-1.8,0.8-2.3
				c-0.5-1.2-3.4-1.3-3.9-1.5c-0.9-0.4,0.8-2.6,1-3.1c0.5-1.3,5.6-0.9,5.8-0.8c0.2,0.2-1,2.3,0.3,2.5c0.3,0.1,1,0.1,1.4,0.3
				c0.7,0.4-1.5,1.2-0.5,1.3c0.1,0,1.3,2.8,0.7,3.3c-0.6,0.5-0.8,1.4-0.9,0.5c0-0.1-1.1-2.2-1,0.7c0,0.1,0.3,2.2-0.8,1.9
				c-0.2-0.1-0.3-1.4-0.5-1.5c-1-0.3-0.6,2.7-1.3,3c-0.3,0.1-0.5,0.3-0.5,0.2c-0.1-2.8-0.8-0.6-1-0.5c-0.1,0-1,0.6-1,0.6
				c0,1.2,1.2,1.7,0.4,2.3c-0.9,0.7-1.7-1.8-2-1.4c-0.4,0.4-1.8,0.1-2,1C484.4,459.5,484.2,460.2,483.8,459.7L483.8,459.7z
				 M497.1,458.9c-0.1,0-0.7-0.6-0.3-1.1c0.3-0.3,0.8-0.7,1.1-0.1C498.1,458.1,497.6,459,497.1,458.9L497.1,458.9z M498.9,454.1
				c-0.1,0-0.7-0.2-0.1-0.7c0.5-0.4,1.7-0.2,1.1,0.3C499.5,454,499.4,454.2,498.9,454.1L498.9,454.1z M501.3,460.4
				c0,0-0.5-1-0.2-1.3c0.3-0.3,0.8-0.3,1-0.1C502.3,459.1,501.8,460.4,501.3,460.4L501.3,460.4z M453,453c0-0.2-2-1,0.6-1
				C453.6,452.4,454.8,453,453,453L453,453z M449,456.6c-0.3-0.2-0.1-0.8,0.4-1.4c0.5-0.6,1.7,0,1,0.5
				C449.9,456.1,449.5,456.9,449,456.6L449,456.6z M452.7,460.7c0-0.1-0.8-0.4-0.8-1.3c0.1,0,0.2-0.7,0.7-0.7
				C452.7,459,454.4,460.7,452.7,460.7L452.7,460.7z M458.7,459.7c-0.1,0-0.4-0.2-0.5-0.5c-0.1-0.2-0.3-1-0.4-1.1
				c-0.4-0.2-1.9-0.2-2.1,0.3c-0.1,0.2-0.6,0-1,0.5c-0.5,0.6-1.8-1-1.2-1.3c0.3-0.2,0.8-1.1-0.4-0.6c-0.4,0.2-2.3,0.9-2.2-0.8
				c0-0.1,0.4-0.5,0.7-0.9c0.4-0.4,1.1,0.2,1.5-0.1c0.6-0.4-1.3-1.1,1-1.5c0.4-0.1,0.5,0,0.9,0.5c0.3,0.4-0.2,1.4,1,1.4
				c0,0,1.7-1.3,2-1.5c0.4-0.3,2.8-4.2,3-4.8c0.1-0.2,0,0,0.2-0.2c0.1-0.1,1.8-0.1,2.1-0.3c0.3-0.3,1.3,0.1,1.6-0.2
				c0.3-0.3,1.5-1.9,1.8-1.5c0.4,0.6,1.8-1.4,1.8-1.4c0-0.9,1.5-0.2,1.9-1.4c0.1-0.4,0.6-2.5,1.6-2.5c0.1,0,0.8-2.4,0.8-2.4
				c0.1-0.8,0.9-0.8,1.6-0.5c0.3,0.1,9.2,0.1,10.6-0.3c0.4-0.1,12.6-0.4,13.8-0.1c0.5,0.1,4.5,1.4,4.6,1.5c0.4,0.1,3.1,0.6,4,0.1
				c1-0.5,1.6-1.2,1.6-2.2c0-1-0.8-1.6-1.1-1.8c-1.3-0.9-5.3-1.2-5.4-1.2c-6.8-0.1-15.9,0.9-19.3,0.9c-3.4,0-4.6-0.5-5.1-0.7
				c-0.5-0.2-1.9-1.2-2.1-2.4c-0.2-1.2,0.3-2.6,1-3.2c0.7-0.6,2.2-1.7,4.5-1.6c4.5,0.1,6.9,0.2,13.8,1.1c1.9,0.2,12.8,0.1,12.8,0.2
				c-0.8,1.2-10.1,2-10.5,1.4c-0.2-0.3-1.4-0.7-1.9-0.3c-0.5,0.5,1.3,1-0.1,0.9c-0.1,0-2.2-1-2.3-1c-0.9-0.1-0.1,0.7-0.1,0.9
				c0.2,1.2-3.7-1.7-4.2-1.4c-0.8,0.5,1,1.1,1,1.3c0.2,1-0.9,0-1.6,0c0,0-2.1-1.9-2.8-1.2c-0.6,0.6,1.6,1.2,0.1,1.1
				c-0.1,0-3.6-1.3-4.4-1.4c-0.9-0.1-3.1,0.1-3.7,1.3c-0.3,0.6-0.4,2.8,1.2,3.4c0.7,0.2,4.7,0.5,7.3,0.5c2.6,0,14.2-1.2,16.7-0.8
				c4.6,0.6,5.5,1.1,6.2,1.9c1,1.2,1.2,1.8,0.7,3.2c-0.5,1.4-2.2,2.2-3.4,2.1c-0.7,0-4.5-0.8-4.9-1.1c-0.5-0.4-3.3-0.9-2.8-0.5
				c0.6,0.5,3.6,1.6,3.9,2.1c0.2,0.3,2.1,1.8,2.6,2.2c0.4,0.3,2.8,1.5,3.5,1.2c1.3-0.7,2.2,0.4,1.3,0.8c-1.9,0.9,0.5,1.9,0.7,2.1
				c0.1,0.1,1.3,2.3,0.3,2.3c0,0-0.8-0.6-1.1,0c-0.2,0.3,0.2,0.7,0.3,0.7c0.5,0,1.6,3,0.3,2.9c-0.1,0-1-1.4-1.4-1.1
				c-0.6,0.4,0.2,2.7-0.4,3.1c-0.5,0.4-0.5-1.1-1.1-0.8c-1.2,0.6,0.9,3.3,0.5,3.6c-0.3,0.2-1.4-0.3-1.6-0.9
				c-0.1-0.3-0.6,0.1-0.9,0.4c-0.3,0.3-0.8-0.6-1,0.3c-0.1,0.2,0.3,1.5-0.9,1.3c-0.1,0-0.8-1.2-0.4-2c0.8-1.4-2.6,0.9-2.6,1
				c-0.2,0.4-1.5,0.2-1.5-0.3c0-0.1-0.2-0.8,0.3-1.4c0.5-0.6,3,0.7,2.2-0.4c-0.5-0.8-1.5-0.5-1.5-1.6c0,0,0.7-1.2,1.3-0.5
				c0.6,0.6,0.9,1,1.2,1.5c0.4,0.6,1.9-0.5,2.2-1.4c0.1-0.3,1.6-4.1,1.4-4.7c-0.6-2.2-5.2-1.7-6.3-2.2c-0.5-0.2-1.8-1-2.5-1.9
				c-0.3-0.5-1.9-1.3-2.6-1.8c-0.5-0.4-6.4-1.3-6.6-0.7c-0.1,0.2-0.2,0.5-0.1,0.5c5.4,0.1,1.6,0.4,1.5,0.4c-1,0.1-8.6,1.9-8.8,2
				c-0.3,0.2-4.3,1.1-4.4,1.1c-0.5,0.1-4.3,0.6-4.7,0.3c-0.8-0.4-0.9-0.3-1.3-1c-0.2-0.4-1,0.4-1,0.8c0,0-0.5,1-0.9,1.3
				c-0.3,0.2-0.9-0.5-1.1,0.6c0,0.1-0.6,2.2-0.6,2.4c-0.2,2.1-1.4-0.5-1.9,0.1c-0.4,0.5-0.4,2.6-0.5,3c-0.4,1.4-0.6-0.2-1-0.4
				c-0.9-0.4-0.7,1.4-1,1.7c-0.3,0.3-0.7,1.5-0.9,0.8c-0.1-0.3,0.1-0.9-0.7-0.8c-0.1,0-2.1,1.7-1.4,2.1
				C459.4,458.3,459.5,459.8,458.7,459.7L458.7,459.7z M444.7,434.2c0-1.2,0.2-1.3,1.4-1.3c0,1.5-1,1-1,1.3H444.7L444.7,434.2z
				 M447.6,429.8c-0.1,0-1.5-0.6-0.4-0.8c0.2,0,1.9-0.7,1.6,0.4C448.6,429.8,448.3,429.9,447.6,429.8L447.6,429.8z M452.4,429.1
				c0-0.3-1.6-1,0.3-1C452.7,428.2,454.2,429.1,452.4,429.1L452.4,429.1z M459.4,432.2c-0.2-0.1,0.4-1.3,0.5-1.6
				c0.3-0.6,1,0.7,0.5,1C460.1,431.8,459.7,432.4,459.4,432.2L459.4,432.2z M461.4,431c-0.1,0-0.7-2-0.2-2.4c0.4-0.3,1.4-1,0.9,0.2
				C461.8,429.3,462.3,431.1,461.4,431L461.4,431z M466.7,436.2c-0.1,0-1.5-0.5-0.8-1c0.5-0.4,1.9-0.4,1.6-1.3
				c-0.1-0.3-1.9,0.2-1.9-0.2c0,0-0.6-0.5-0.6-0.5c-1.4,0,0.1,1,0,1.7c0,0.1-0.4,0.6-1,0.3c-1.2-0.6-0.3-1.2-1.8-1.4
				c-0.2,0,0-0.4-0.3-0.6c-0.6-0.4,0.3-2,0.4-2c0.8-0.1,0.3-3.9,0.8-3.8c0,0,0.7,1.2,1,0.9c0.5-0.4-0.4-1.9,0.5-1.9
				c0,0,0.5,1.1,0.8,1.2c2,0.3-0.6-2,0.7-1.9c0.1,0,0.5,0.9,0.7,1.3c0.1,0.2,0.4,1.5,0.8,0.7c0.8-1.7,0.3-2.8,1.3-1.9
				c0.8,0.7-0.9,2.2-0.2,3c0.6,0.7,1.1-2.1,2.4-1.6c0.5,0.2-0.3,1.4-1,1.6c-0.2,0-0.6,0.4,0.1,0.7c0.3,0.1,1.9-0.7,1.7,0
				c0,0.2-1.1,0.8-0.9,1.1c0.3,0.5,1.5-0.5,1.9-0.3c0.7,0.4-0.1,0.8-0.8,0.9c-0.1,0-1.3-0.1-0.2,0.5c0.7,0.4,0,2.1-0.7,1.6
				c-0.4-0.2-1,0-1.2,0.5c-0.1,0.3-0.5,1.4-1,1.9c-0.5,0.6-1-0.9-1.3-0.3C467.6,435.6,467.8,436.3,466.7,436.2L466.7,436.2z
				 M463.5,438.7c0-0.6-0.3-2.1,0.2-2.5c0.5-0.4,0.7,0.8,1.3,0.6c1.5-0.6-0.1,2.3-0.7,2.3C463.7,439,463.7,438.8,463.5,438.7
				L463.5,438.7z M463.3,440.5c-0.1,0-0.9-0.5-1.3-1c-0.3-0.5-0.2-3-0.4-3.1c-0.2-0.2-0.3-1.2,0.1-1.2c0.1,0,0.4-0.1,0.4,0
				c0.3,0,0.8,3.5,0.9,3.8c0.3,0.8,1.8,0.6,2.2,0.2c0.4-0.4,2.3-2.6,2.1-1.2c0,0.2-1.4,2.1-1.8,2.4
				C465.2,440.5,463.8,440.5,463.3,440.5L463.3,440.5z M460.6,448.2c0,0-0.1-0.9-0.4-1.1c-0.5-0.4,0.6-2.2-0.5-1.6
				c-0.5,0.2-1.1,0.6-1.1-0.8c0,0,0.3-0.9,0.3-1.1c-0.2-0.8-0.6,0.5-1.1-0.9c-0.2-0.5,0.4-3.4,0.1-3.5c-1.6-0.4-0.5-1-0.4-1.7
				c0-0.1,0.8-2,1.3-2c0,0,1.2-1.1,0.5-1.3c-0.3-0.1-0.3,0.1-0.4,0.1c-0.8,0.1,0.4-1.3,0.9-1.4c0.1,0,1.2-1.1,1.2-0.4
				c0,0,0.4,1.8,0.1,2.4c-0.6,1,0.4,2.3,0.1,3.4c-0.1,0.3-0.1,0.8,0,1c0.2,0.2,1.7,2.1,2.1,2.2c0.1,0,3.3-0.1,3.4-1.1
				c0-0.1,2.2-3.6,2.5-3.7c1.7-0.3,1.2-2.6,3-2.5c0,0,1.2,0.8,0.5,1.3c-0.6,0.5-1.3-0.9-1,0.4c0,0.2,0.8,4.2-0.2,3.8
				c-0.4-0.1,0-1.8-0.6-2.1c-1.5-0.6,0.3,3.2-0.3,3.8c-0.5,0.4-0.4,2.2-1,1.9c-0.3-0.1-0.5-1.1-0.7-0.4c-0.1,0.2-0.3,1.8-0.6,2.1
				c-0.3,0.3-0.5,0.9-1.2,0.4c-0.9-0.6-0.9,0.7-1.2,1.1c-0.5,0.8-1.6,0.3-1.7,0.7c0,0.1-0.9,0.6-1.2,0.4
				C461.6,447.2,461.6,448.3,460.6,448.2L460.6,448.2z M458.8,447.6c-0.2-0.1-5.1-0.9-4.8-2.4c0.1-0.3,0.7-0.7,0.4-1
				c-0.4-0.4-2.5-0.9-1.8-1.5c0.6-0.6,1-1.1,0.4-1.5c-0.4-0.3-2.1-0.2-1.6-1.2c0.2-0.4,1.7-0.6,2.1-1c0.4-0.3-1.8-2.6-2.3-1.7
				c-0.3,0.5-1.7,1.1-1.9,0.6c-0.5-1.2,1.3-0.9,1.2-2.4c0-0.1-0.5-0.9-0.9-1c-0.2-0.1-2.4,0.1-2.5-0.3c-0.1-0.2-0.1-0.6-0.1-0.8
				c0.2-1.7,1.9,0.4,2.4-0.2c0.5-0.5-2.4-1.9-1.2-2.4c0.6-0.3,1.4-0.8,1.8-0.5c0.5,0.4-0.2,2.9,1.1,2.8c0.1,0,0.4-2.3,0.4-2.5
				c0.2-0.6,1.5-0.7,2-0.1c0.4,0.5-0.7,1.6-0.8,1.8c-0.2,0.3,0,2.3,0.2,2.6c0.3,0.3,1,2.2,1.3,2.3c0.1,0,1.6,1.5,1.6,1.6
				c0.1,0.6,0.2,2.3,0.7,3c0.7,0.9-0.5,2.9,0.3,3.3c1.4,0.8,0.3,1.3,2.4,1.9C459.8,447,459.3,447.9,458.8,447.6L458.8,447.6z
				 M464.8,431.5c0-0.6,0.9-0.5,0.4,0C465,431.6,464.9,431.6,464.8,431.5L464.8,431.5z M469.1,432.9c0-0.6,0.7-1,0.7-0.2
				C469.6,432.7,469.5,432.9,469.1,432.9L469.1,432.9z"/>
			<path fill-rule="evenodd" clip-rule="evenodd" fill="#FFFFFF" d="M504.5,400.9c0.4,0,1,0.4,1,0.8v3.4c0,0.2-0.1,0.4-0.3,0.4h-1.3
				c-0.2,0-0.3-0.2-0.3-0.4v-3.4C503.5,401.2,504.2,400.9,504.5,400.9L504.5,400.9z M500.4,400.9c0.4,0,1,0.4,1,0.8v3.4
				c0,0.2-0.1,0.4-0.3,0.4h-1.3c-0.2,0-0.3-0.2-0.3-0.4v-3.4C499.4,401.2,500.1,400.9,500.4,400.9L500.4,400.9z M457.8,400.9
				c0.4,0,1,0.4,1,0.8v3.4c0,0.2-0.1,0.4-0.3,0.4h-1.3c-0.2,0-0.3-0.2-0.3-0.4v-3.4C456.7,401.2,457.4,400.9,457.8,400.9
				L457.8,400.9z M453.7,400.9c0.4,0,1,0.4,1,0.8v3.4c0,0.2-0.1,0.4-0.3,0.4H453c-0.2,0-0.3-0.2-0.3-0.4v-3.4
				C452.6,401.2,453.3,400.9,453.7,400.9L453.7,400.9z M492.1,403.6c-0.2,0.2,0.2,0.9,0.2,1.2c0,0.6-0.5,1-1,1c-0.6,0-1-0.5-1-1
				c0-0.3,0.4-1,0.2-1.2c-0.2-0.2-0.9,0.2-1.2,0.2c-0.6,0-1-0.5-1-1c0-0.6,0.5-1,1-1c0.3,0,1,0.4,1.2,0.2c0.2-0.2-0.2-0.9-0.2-1.2
				c0-0.6,0.5-1,1-1c0.6,0,1,0.5,1,1c0,0.3-0.4,1-0.2,1.2c0.2,0.2,0.9-0.2,1.2-0.2c0.6,0,1,0.5,1,1c0,0.6-0.5,1-1,1
				C493,403.8,492.3,403.4,492.1,403.6L492.1,403.6z M484.5,416.6v-0.4h2v2.9h-0.1L484.5,416.6L484.5,416.6z M484.5,415.6v-3.9h2
				v3.9H484.5L484.5,415.6z M484.5,411.1v-2.7c0-0.4,0-0.9-0.1-1.3l2-0.5c0.1,0.4,0.1,0.8,0.1,1.2v3.4H484.5L484.5,411.1z
				 M484.2,406.6c-0.4-1.1-1.1-2.1-2.1-2.8l1-1.8c1.5,0.9,2.6,2.4,3,4L484.2,406.6L484.2,406.6z M481.6,403.5
				c-0.7-0.4-1.6-0.6-2.5-0.6c-0.8,0-1.6,0.2-2.3,0.5l-1-1.7c1-0.5,2.1-0.8,3.3-0.8c1.2,0,2.4,0.3,3.4,0.8L481.6,403.5L481.6,403.5z
				 M476.3,403.7c-1,0.6-1.8,1.6-2.2,2.8l-2-0.5c0.5-1.7,1.6-3.1,3.2-4L476.3,403.7L476.3,403.7z M473.9,407.1
				c-0.1,0.4-0.2,0.9-0.2,1.3v2.7h-1.9v-3.3c0-0.4,0-0.8,0.1-1.2L473.9,407.1L473.9,407.1z M473.8,411.7v3.9h-1.9v-3.9H473.8
				L473.8,411.7z M473.8,416.2v0.4l-1.9,2.4v-2.8H473.8L473.8,416.2z M474.3,410.6v-1h0.6c0.1-0.1,0.2-0.3,0.4-0.4v-1.5
				c-0.1-0.1-0.3-0.2-0.4-0.4h-0.5c0.1-0.3,0.2-0.7,0.3-1h0.1c0.1-0.2,0.2-0.3,0.4-0.4v-0.5c0.3-0.4,0.6-0.8,1-1.1v1.5
				c0.1,0.1,0.3,0.2,0.4,0.4h1.7c0.1-0.2,0.2-0.3,0.4-0.4v-2.6c0.1,0,0.3,0,0.4,0c0.2,0,0.4,0,0.5,0v2.6c0.1,0.1,0.3,0.2,0.4,0.4
				h1.7c0.1-0.2,0.2-0.3,0.4-0.4v-1.5c0.4,0.3,0.7,0.7,1,1.1v0.4c0.1,0.1,0.3,0.2,0.4,0.4h0.1c0.1,0.3,0.3,0.6,0.3,1h-0.4
				c-0.1,0.1-0.2,0.3-0.4,0.4v1.5c0.1,0.1,0.3,0.2,0.4,0.4h0.5v1h-0.5c-0.1,0.2-0.2,0.3-0.4,0.4v1.6h-1V411
				c-0.1-0.1-0.3-0.2-0.4-0.4H480c-0.1,0.2-0.2,0.3-0.4,0.4v1.6h-1V411c-0.1-0.1-0.3-0.2-0.4-0.4h-1.7c-0.1,0.2-0.2,0.3-0.4,0.4v1.6
				h-1V411c-0.1-0.1-0.3-0.2-0.4-0.4H474.3L474.3,410.6z M487.1,419.1v-11.4c0-4.1-3.6-7.5-7.9-7.5c-4.4,0-7.9,3.4-7.9,7.5v11.4
				h-6.5v-2.7v-1.3l-2.6-2.4v-14.4h33.6v14.4l-2.4,2.4h18.2l-2.3-2.4v-14.4v-0.6l2.3-2v-1.1v-4.1h-1.1h-1.3c0-4.3-3.1-6.5-6.3-6.8
				v-2.6c2.3-0.1,3.4,0.9,5.3,1.2c0.2-1.3,0.2-2.7,0-3.9c-2.2-0.1-3-1.1-4.9-1.2c0.1-0.1,0.1-0.3,0.1-0.4c0-0.6-0.5-1-1-1
				c-0.6,0-1,0.5-1,1c0,0.3,0.2,0.6,0.4,0.8v6.2c-3.2,0.2-6.3,2.5-6.3,6.8h-1.8c0-4.5-4.1-13.6-14.1-14.1v-2.6
				c2.3-0.1,3.4,0.9,5.3,1.2c0.2-1.3,0.2-2.7,0-3.9c-2.2-0.1-3-1.1-4.9-1.2c0.1-0.1,0.1-0.3,0.1-0.4c0-0.6-0.5-1-1-1
				c-0.6,0-1,0.5-1,1c0,0.3,0.2,0.6,0.4,0.8v6.1c-9.9,0.2-14.1,9.6-14.1,14.1h-1.9c0-4.3-3.1-6.5-6.3-6.8v-2.6
				c2.3-0.1,3.4,0.9,5.3,1.2c0.2-1.3,0.2-2.7,0-3.9c-2.2-0.1-3-1.1-4.9-1.2c0.1-0.1,0.1-0.3,0.1-0.4c0-0.6-0.5-1-1-1
				c-0.6,0-1,0.5-1,1c0,0.3,0.2,0.6,0.4,0.8v6.2c-3.2,0.2-6.3,2.5-6.3,6.8h-1.2h-1h0v4.1v1.1l2.2,2v0.6v14.4l-2.2,2.4l0,0v0v1.3v2.7
				v1.5h64.9v-1.5v-2.7v-1.3l-1.4,0l-1.1-1.3h-13.1l-1.3,1.3l-1.4,0v1.3v2.7H487.1L487.1,419.1z M473.3,418.5H485v0.5h-11.6V418.5
				L473.3,418.5z M474.1,417.5h10.2v0.5h-10.2V417.5L474.1,417.5z M474.8,416.5h8.7v0.5h-8.7V416.5L474.8,416.5z M476.2,409.2
				c0.1,0.1,0.3,0.2,0.4,0.4h1.7c0.1-0.1,0.2-0.3,0.4-0.4v-1.5c-0.1-0.1-0.3-0.2-0.4-0.4h-1.7c-0.1,0.1-0.2,0.3-0.4,0.4V409.2
				L476.2,409.2z M479.6,409.2c0.1,0.1,0.3,0.2,0.4,0.4h1.7c0.1-0.1,0.2-0.3,0.4-0.4v-1.5c-0.1-0.1-0.3-0.2-0.4-0.4H480
				c-0.1,0.1-0.2,0.3-0.4,0.4V409.2L479.6,409.2z M447.8,394.7h15.9v-3.4h-1.5v1.3v0.9h-2.5v-0.9v-1.3h-2.7v1.3v0.9h-2.5v-0.9v-1.3
				h-2.5v1.3v0.9h-2.5v-0.9v-1.3h-1.6V394.7L447.8,394.7z M467.7,403.6c-0.2,0.2,0.2,0.9,0.2,1.2c0,0.6-0.5,1-1,1c-0.6,0-1-0.5-1-1
				c0-0.3,0.4-1,0.2-1.2c-0.2-0.2-0.9,0.2-1.2,0.2c-0.6,0-1-0.5-1-1c0-0.6,0.5-1,1-1c0.3,0,1,0.4,1.2,0.2c0.2-0.2-0.2-0.9-0.2-1.2
				c0-0.6,0.5-1,1-1c0.6,0,1,0.5,1,1c0,0.3-0.4,1-0.2,1.2c0.2,0.2,0.9-0.2,1.2-0.2c0.6,0,1,0.5,1,1c0,0.6-0.5,1-1,1
				C468.6,403.8,467.9,403.4,467.7,403.6L467.7,403.6z M508.4,390.5c0-7.8-11.8-7.8-11.8,0h0.5v0.7v1.3h1v-1.3v-0.7h4v0.7v1.3h1
				v-1.3v-0.7h4.2v0.7v1.3h1v-1.3v-0.7H508.4L508.4,390.5z M492.5,390.5c0-3.9-3.4-13-13.4-12.9c-9.9,0-13.5,8.9-13.5,12.9h1.3v0.7
				v1.3h0.8v-1.3v-0.7h4.9v0.7v1.3h0.9v-1.3v-0.7h5v0.7v1.3h1.1v-1.3v-0.7h5v0.7v1.3h1v-1.3v-0.7h4.7v0.7v1.3h1v-1.3v-0.7H492.5
				L492.5,390.5z M461.7,390.5c0-7.8-11.8-7.8-11.8,0h0.3v0.7v1.3h1v-1.3v-0.7h4.1v0.7v1.3h1v-1.3v-0.7h4.3v0.7v1.3h1v-1.3v-0.7
				H461.7L461.7,390.5z M456.4,378c2.1,0,2.6,0.8,4.6,1c0.2,0.8,0.2,1.8,0,2.6c-1.6-0.3-2.4-1.1-4.5-1
				C456.4,379.8,456.3,378.7,456.4,378L456.4,378z M506.4,391.2v1.3v0.9h2.5v-0.9v-1.3h1.6v3.4h-16.1v-3.4h1.7v1.3v0.9h2.5v-0.9
				v-1.3h2.5v1.3v0.9h2.5v-0.9v-1.3H506.4L506.4,391.2z M447.8,419.1h15.9v-2.7h-15.9V419.1L447.8,419.1z M494.5,419.1h16.1v-2.7
				h-16.1V419.1L494.5,419.1z M448.1,415.2h16.6l-1.4,0l-1.4-1.3h-12.8L448.1,415.2L448.1,415.2z M496.8,412.8h11.4v-14.4h-11.4
				V412.8L496.8,412.8z M449.9,412.8h11.3v-14.4h-11.3V412.8L449.9,412.8z M450.4,397.1h10.9l1.5-1.3H449L450.4,397.1L450.4,397.1z
				 M462.9,397.1h32.2l-1.4-1.3h-29.4L462.9,397.1L462.9,397.1z M496.8,397.1H508l1.5-1.3h-14.1L496.8,397.1L496.8,397.1z
				 M464.8,394.7h28.6v-3.4h-1.3v1.3v0.9h-2.5v-0.9v-1.3h-3.2v1.3v0.9h-2.5v-0.9v-1.3h-3.4v1.3v0.9h-2.6v-0.9v-1.3h-3.5v1.3v0.9
				h-2.5v-0.9v-1.3h-3.4v1.3v0.9h-2.4v-0.9v-1.3h-1.4V394.7L464.8,394.7z M479.9,370.6c2.1,0,2.6,0.8,4.6,1c0.2,0.8,0.2,1.8,0,2.6
				c-1.6-0.3-2.4-1.1-4.5-1C479.8,372.5,479.7,371.4,479.9,370.6L479.9,370.6z M503.1,378c2.1,0,2.6,0.8,4.6,1
				c0.2,0.8,0.2,1.8,0,2.6c-1.6-0.3-2.4-1.1-4.5-1C503,379.8,503,378.7,503.1,378L503.1,378z"/>
		</g>
		<g>
			<path fill="#FFFFFF" d="M549,397.3h-7.4v-30h6.6l16.1,17.9v-17.9h7.4v30h-5.9L549,378.4V397.3z"/>
			<path fill="#FFFFFF" d="M580.8,371c3-2.9,6.9-4.3,11.6-4.3c4.7,0,8.6,1.4,11.6,4.3c3.1,2.9,4.7,6.8,4.7,11.2
				c0,4.5-1.6,8.3-4.7,11.2c-3,2.9-6.9,4.3-11.6,4.3c-4.7,0-8.6-1.4-11.6-4.3c-3.1-2.9-4.7-6.8-4.7-11.2
				C576.1,377.8,577.7,374,580.8,371z M592.4,391.5c5,0,8.6-3.8,8.6-9.2c0-5.4-3.6-9.2-8.6-9.2c-5,0-8.6,3.8-8.6,9.2
				C583.8,387.7,587.4,391.5,592.4,391.5z"/>
			<path fill="#FFFFFF" d="M613.3,367.3h11.1c8,0,11.9,2.7,11.9,8.7c0,3.3-1.6,5.6-5.2,7.2c1.5,0.6,2.7,1.8,3.6,3.8l4.8,10.3h-8.5
				l-3.8-8.7c-1.2-2.7-2.5-3.6-5.4-3.6c-0.3,0-0.6,0-0.9,0v12.2h-7.5V367.3z M628.5,376c0-2.2-1.4-3.5-4.1-3.5h-3.6v7h3.6
				C627.2,379.6,628.5,378.4,628.5,376z"/>
			<path fill="#FFFFFF" d="M638.3,367.3h7.8l5.8,16.3l5.9-16.3h5l5.9,16.4l5.8-16.4h7.9l-12.2,30.3h-3.1l-6.8-18.8l-6.8,18.8h-3.1
				L638.3,367.3z"/>
			<path fill="#FFFFFF" d="M685,367.3h7.7v30H685V367.3z"/>
			<path fill="#FFFFFF" d="M713.6,397.8c-4.8,0-8.7-1.5-11.6-4.2c-3-2.9-4.7-6.8-4.7-11.3c0-9.1,6.6-15.6,17-15.6
				c3.7,0,7.2,0.8,10.5,2.5v7c-3.3-2.2-6.7-3.2-10-3.2c-6.1,0-9.8,3.5-9.8,9.3c0,5.5,3.5,9.2,9.2,9.2c3.6,0,7.2-1.3,10.9-3.8v7
				C721.5,396.8,717.8,397.8,713.6,397.8z"/>
			<path fill="#FFFFFF" d="M729.5,367.3h7.5v12h13.4v-12h7.5v30h-7.5v-12.2H737v12.2h-7.5V367.3z"/>
		</g>
		<g>
			<path fill="#FFFFFF" d="M568.4,436.1c-3.5,1.9-7.2,2.8-10.8,2.8c-3.5,0-6.6-0.9-9.3-2.7c-4.5-2.9-7.1-7.7-7.1-13
				c0-4.1,1.7-8,4.7-10.9c3.2-3,7.2-4.5,12-4.5c4.1,0,7.5,1.1,10.3,2.4v4.7c-3.7-2-7-3-10.3-3c-7.2,0-12.2,5.1-12.2,11.5
				c0,6.4,5,11.5,11.9,11.5c3.5,0,7.1-1.2,10.8-3.6V436.1z"/>
			<path fill="#FFFFFF" d="M574.8,410.4c1.2,0,2.2,1,2.2,2.2c0,1.3-1,2.2-2.2,2.2c-1.2,0-2.2-1-2.2-2.2
				C572.5,411.4,573.5,410.4,574.8,410.4z M572.8,418.5h4v19.9h-4V418.5z"/>
			<path fill="#FFFFFF" d="M588.6,438.8c-4.8,0-6.1-2.2-6.1-7.4V422h-3.4v-0.4l7-7.7h0.4v4.6h6.2v3.4h-6.2v9.1
				c0,2.8,0.3,3.9,2.9,3.9c1.2,0,2.3-0.3,3.4-1v3.7C591.6,438.5,590.2,438.8,588.6,438.8z"/>
			<path fill="#FFFFFF" d="M593,418.5h4.4l6.1,11.6l5.7-11.6h4.3l-14.8,29.9h-4.3l6.9-13.9L593,418.5z"/>
			<path fill="#FFFFFF" d="M653.2,436.1c-3.5,1.9-7.2,2.8-10.8,2.8c-3.5,0-6.6-0.9-9.3-2.7c-4.5-2.9-7.1-7.7-7.1-13
				c0-4.1,1.7-8,4.7-10.9c3.2-3,7.2-4.5,12-4.5c4.1,0,7.5,1.1,10.3,2.4v4.7c-3.7-2-7-3-10.3-3c-7.2,0-12.2,5.1-12.2,11.5
				c0,6.4,5,11.5,11.9,11.5c3.5,0,7.1-1.2,10.8-3.6V436.1z"/>
			<path fill="#FFFFFF" d="M666.7,418.1c2.8,0,5.4,1.1,7.4,3c2,2,3.1,4.5,3.1,7.3c0,2.7-1.1,5.4-3.1,7.4c-2,2-4.6,3-7.4,3
				c-5.9,0-10.6-4.6-10.6-10.4C656.1,422.7,660.8,418.1,666.7,418.1z M666.7,435.1c3.5,0,6.4-3,6.4-6.6c0-3.7-2.9-6.6-6.4-6.6
				c-3.5,0-6.4,2.9-6.4,6.6C660.3,432.1,663.1,435.1,666.7,435.1z"/>
			<path fill="#FFFFFF" d="M687.9,438.7c-4.3,0-7-2.6-7-7v-13.2h4v12.2c0,3.2,1.3,4.7,4.2,4.7c2.1,0,3.5-0.8,4.9-2.6v-14.3h4v19.9
				h-4V436C692,437.8,690.2,438.7,687.9,438.7z"/>
			<path fill="#FFFFFF" d="M703,418.5h4v2.4c1.9-1.9,3.8-2.7,6.1-2.7c4.3,0,7,2.6,7,7v13.2h-4v-12.2c0-3.2-1.3-4.7-4.2-4.7
				c-2.1,0-3.5,0.8-4.9,2.6v14.3h-4V418.5z"/>
			<path fill="#FFFFFF" d="M740.5,437.7c-2,0.7-3.9,1.1-5.7,1.1c-6.6,0-11.1-4.4-11.1-10.4c0-5.8,4.5-10.4,10.9-10.4
				c1.9,0,3.7,0.4,5.6,1.2v4.2c-1.9-1.1-3.6-1.6-5.5-1.6c-4.2,0-6.9,2.8-6.9,6.5c0,3.8,2.7,6.6,7.1,6.6c1.9,0,3.8-0.4,5.6-1.4V437.7
				z"/>
			<path fill="#FFFFFF" d="M746.5,410.4c1.2,0,2.2,1,2.2,2.2c0,1.3-1,2.2-2.2,2.2c-1.2,0-2.2-1-2.2-2.2
				C744.2,411.4,745.3,410.4,746.5,410.4z M744.5,418.5h4v19.9h-4V418.5z"/>
			<path fill="#FFFFFF" d="M753.8,408.3h4v30.1h-4V408.3z"/>
		</g>
	</g>
</g>
</svg>
